<?xml version="1.0" encoding="UTF-8"?>
<svg version="1.1" xmlns="http://www.w3.org/2000/svg" width="500" height="500">
<path d="M0 0 C165 0 330 0 500 0 C500 165 500 330 500 500 C335 500 170 500 0 500 C0 335 0 170 0 0 Z " fill="#1D3432" transform="translate(0,0)"/>
<path d="M0 0 C10.27731733 -0.56058095 20.15237117 2.84516253 27.9453125 9.71484375 C35.59936061 17.81620636 38.66992182 28.41772982 41.5625 38.9375 C42.16135774 41.04466998 42.76160262 43.15144626 43.36328125 45.2578125 C43.64510254 46.25071289 43.92692383 47.24361328 44.21728516 48.26660156 C45.18113356 51.632555 46.18569535 54.9768632 47.25 58.3125 C47.65992188 59.60607422 47.65992188 59.60607422 48.078125 60.92578125 C49.11568183 63.26028413 49.95046191 64.47224798 52 66 C53.65918067 66.36879316 55.32598223 66.70580043 57 67 C56.98889694 66.36630493 56.97779388 65.73260986 56.96635437 65.07971191 C56.85540012 58.4608373 56.78018316 51.84222855 56.7253418 45.22265625 C56.70025842 42.7550991 56.66618353 40.2876158 56.62280273 37.8203125 C56.56188253 34.26543922 56.53372713 30.7115516 56.51171875 27.15625 C56.48591232 26.06010376 56.4601059 24.96395752 56.43351746 23.83459473 C56.43100408 16.91000124 57.46562518 12.34093618 62 7 C67.97053528 1.33564602 73.60418374 -0.52271613 81.625 -0.375 C82.81706055 -0.35977295 82.81706055 -0.35977295 84.03320312 -0.34423828 C94.73401417 -0.06480415 104.50964238 2.13941852 113 9 C116.49743936 12.74218117 118.27080698 16.36443509 118.5625 21.5 C118.0859941 28.79806412 114.42086685 34.444726 109.19921875 39.39453125 C102.70411514 44.13607225 94.30483238 47.18095342 86.25 47.0625 C85.45078125 47.05347656 84.6515625 47.04445312 83.828125 47.03515625 C83.22484375 47.02355469 82.6215625 47.01195312 82 47 C82 46.01 82 45.02 82 44 C83.0725 43.79375 84.145 43.5875 85.25 43.375 C89.09460874 42.27941323 89.09460874 42.27941323 91.4375 39.4375 C94.19904887 33.3620925 93.64870374 28.19611122 91.5625 21.9375 C88.77358016 15.55286565 83.73174374 10.75477416 77.44140625 7.796875 C74.17608216 6.73107322 71.41134616 6.74730769 68 7 C67.01 7.66 66.02 8.32 65 9 C65.495 12.465 65.495 12.465 66 16 C66.70125 16.2475 67.4025 16.495 68.125 16.75 C73.55229526 19.10969359 77.30133431 21.57557213 80.18615723 26.87210083 C81.75869179 30.98369966 81.48523708 35.18199539 81.390625 39.52734375 C81.38496521 40.51626114 81.37930542 41.50517853 81.37347412 42.52406311 C81.35120015 45.66238143 81.30101998 48.79953057 81.25 51.9375 C81.22992342 54.07355114 81.21167468 56.2096203 81.1953125 58.34570312 C81.15477732 63.56460774 81.07646879 68.78100536 81 74 C73.08 74 65.16 74 57 74 C56.67 73.34 56.34 72.68 56 72 C55.030625 72.495 54.06125 72.99 53.0625 73.5 C47.99600553 75.63487368 43.0806411 76.02872396 37.82421875 74.2734375 C30.54504952 70.90116701 24.01014275 64.52535686 21 57 C21 56.01 21 55.02 21 54 C15.72 54 10.44 54 5 54 C5.721875 55.815 6.44375 57.63 7.1875 59.5 C7.59355469 60.5209375 7.99960938 61.541875 8.41796875 62.59375 C10.26706016 66.57500361 12.67346044 70.2775367 15 74 C4.44 74 -6.12 74 -17 74 C-17 54.88246695 -6.92652768 36.12975365 5.03979492 21.53857422 C7.22084735 18.75746001 8.01889424 17.40523168 7.8515625 13.81640625 C6.09980787 7.83983261 6.09980787 7.83983261 1.8125 3.625 C1.214375 3.41875 0.61625 3.2125 0 3 C0 2.01 0 1.02 0 0 Z " fill="#FAE1BA" transform="translate(185,167)"/>
<path d="M0 0 C7.59 0 15.18 0 23 0 C23 24.09 23 48.18 23 73 C15.41 73 7.82 73 0 73 C0 48.91 0 24.82 0 0 Z " fill="#FFE5BD" transform="translate(308,168)"/>
<path d="M0 0 C1.19206055 0.01522705 1.19206055 0.01522705 2.40820312 0.03076172 C13.10901417 0.31019585 22.88464238 2.51441852 31.375 9.375 C34.87243936 13.11718117 36.64580698 16.73943509 36.9375 21.875 C36.4609941 29.17306412 32.79586685 34.819726 27.57421875 39.76953125 C21.07911514 44.51107225 12.67983238 47.55595342 4.625 47.4375 C3.82578125 47.42847656 3.0265625 47.41945312 2.203125 47.41015625 C1.59984375 47.39855469 0.9965625 47.38695312 0.375 47.375 C0.375 46.385 0.375 45.395 0.375 44.375 C1.4475 44.16875 2.52 43.9625 3.625 43.75 C7.46960874 42.65441323 7.46960874 42.65441323 9.8125 39.8125 C12.57404887 33.7370925 12.02370374 28.57111122 9.9375 22.3125 C7.14911484 15.92908969 2.10474299 11.11516884 -4.1953125 8.17578125 C-8.84040027 6.64484396 -12.4736665 6.87536471 -16.9375 8.8125 C-17.824375 9.328125 -18.71125 9.84375 -19.625 10.375 C-20.615 10.87 -20.615 10.87 -21.625 11.375 C-19.74347908 6.58567402 -16.27781701 4.37797056 -11.9921875 1.77734375 C-7.82058887 0.03998423 -4.46677499 -0.08226279 0 0 Z " fill="#F9E1B9" transform="translate(266.625,166.625)"/>
<path d="M0 0 C7.01947162 2.30304865 12.71057917 6.92091392 16.32421875 13.359375 C18.72530402 18.78498523 20.14284941 24.08207682 19 30 C16.9949912 33.8026029 15.57313738 35.61790841 12 38 C8.8125 38.125 8.8125 38.125 6 38 C5.96261719 36.97519531 5.92523438 35.95039063 5.88671875 34.89453125 C5.82102921 33.53381938 5.75458291 32.17314389 5.6875 30.8125 C5.66494141 30.13896484 5.64238281 29.46542969 5.61914062 28.77148438 C5.38178424 24.34802444 4.47982622 21.63663523 2 18 C2 17.34 2 16.68 2 16 C1.484375 15.7525 0.96875 15.505 0.4375 15.25 C-8.58441558 10.62337662 -8.58441558 10.62337662 -11 7 C-10.8125 4.4375 -10.8125 4.4375 -10 2 C-6.20991318 -0.52672455 -4.50802658 -0.44341245 0 0 Z " fill="#213735" transform="translate(260,173)"/>
<path d="M0 0 C3.34861059 1.38563197 5.29014301 2.76027096 7 6 C6.57859835 13.15355 2.3649596 18.6981298 -2.44970703 23.72607422 C-6.60341439 27.13930965 -11.87634417 26.98662231 -17 27 C-18.10988281 27.12761719 -18.10988281 27.12761719 -19.2421875 27.2578125 C-21.0625 27.4375 -21.0625 27.4375 -24 27 C-27.6517594 23.73263632 -28.5528665 20.80668512 -29 16 C-27.72125 15.9175 -26.4425 15.835 -25.125 15.75 C-15.12602955 14.57272718 -8.44555085 10.69358643 -2 3 C-1.34 2.01 -0.68 1.02 0 0 Z " fill="#EED7B2" transform="translate(322,307)"/>
<path d="M0 0 C1.12019531 0.51304688 2.24039063 1.02609375 3.39453125 1.5546875 C6.1875 3.125 6.1875 3.125 8.1875 6.125 C7.73466981 12.57783019 7.73466981 12.57783019 5.1875 15.125 C4.28 14.650625 3.3725 14.17625 2.4375 13.6875 C-8.0689641 9.22118935 -18.51606111 11.42884245 -28.8125 15.125 C-29.4591185 11.77026639 -29.90439901 8.54688668 -29.8125 5.125 C-28.0625 2.8125 -28.0625 2.8125 -24.8125 1.125 C-23.97460938 0.67125 -23.13671875 0.2175 -22.2734375 -0.25 C-13.79150834 -4.54938007 -8.66879978 -4.05687719 0 0 Z " fill="#F0D9B3" transform="translate(260.8125,82.875)"/>
<path d="M0 0 C2.4375 2 2.4375 2 4 4 C2.58916858 7.34527039 0.97296038 9.03611382 -1.875 11.25 C-9.5335914 17.81252487 -10.76660478 25.26266934 -12 35 C-15.71773937 34.74062283 -17.77550562 34.15589037 -20.86328125 32.01171875 C-23.83426842 27.82409332 -23.69361376 24.80482178 -23.1875 19.8125 C-23.10201904 18.96840576 -23.01653809 18.12431152 -22.9284668 17.25463867 C-22.05573111 11.79044001 -20.52984681 8.57088871 -16.18286133 5.09838867 C-10.89582235 1.46350624 -6.66313286 -0.75754445 0 0 Z " fill="#EFD8B3" transform="translate(153,136)"/>
<path d="M0 0 C6.48514464 0.6118061 6.48514464 0.6118061 8.71484375 2.29296875 C10.73095475 4.97090342 10.29456689 7.16673426 10.12109375 10.41015625 C9.94330884 13.01768014 9.94330884 13.01768014 10.22265625 15.68359375 C10.32685946 18.87764865 10.13839009 20.99649847 9 24 C4.25171343 29.04889752 -0.88664924 33.22411763 -7.71484375 34.92578125 C-11 35 -11 35 -12.99609375 34.00390625 C-14.33072917 32.66927083 -15.66536458 31.33463542 -17 30 C-15.9790625 28.9790625 -15.9790625 28.9790625 -14.9375 27.9375 C-14.48375 27.4734375 -14.03 27.009375 -13.5625 26.53125 C-12 25 -12 25 -10.25 23.53125 C-3.16837261 17.30430178 -1.37309886 9.05976013 0 0 Z " fill="#F3DCB5" transform="translate(359,258)"/>
<path d="M0 0 C1.61907352 0.07862168 3.23760959 0.16897195 4.85546875 0.26953125 C6.06686523 0.3169043 6.06686523 0.3169043 7.30273438 0.36523438 C11.9607031 0.62846111 15.33477302 1.01026841 19.04296875 4.08203125 C20.81539332 6.18782721 22.3735818 8.20141346 23.91796875 10.45703125 C24.33304687 11.02164063 24.748125 11.58625 25.17578125 12.16796875 C27.02271006 14.82754624 28.05921929 16.53957259 27.9609375 19.8203125 C26.67358902 22.99212003 24.5618178 24.82152569 22.04296875 27.08203125 C13.04296875 18.08203125 13.04296875 18.08203125 11.75390625 16.5625 C9.43528232 14.55620212 7.14255663 13.88743417 4.23046875 12.95703125 C3.21339844 12.62445313 2.19632812 12.291875 1.1484375 11.94921875 C-1.87894568 11.10383628 -4.84926727 10.53727919 -7.95703125 10.08203125 C-5.70715923 0.11831228 -5.70715923 0.11831228 0 0 Z " fill="#F2DBB5" transform="translate(300.95703125,94.91796875)"/>
<path d="M0 0 C0.10957031 0.79664063 0.21914062 1.59328125 0.33203125 2.4140625 C1.73786218 11.80912775 4.19680399 18.26483595 11 25 C13.68654708 26.90038049 13.68654708 26.90038049 16 28 C15.63802104 30.62434747 15.17343943 31.82013689 13.3125 33.75 C10.21623732 35.4236555 8.51015067 35.38081823 5 35 C2.34333293 33.78756134 0.05312257 32.20145724 -2.3125 30.5 C-2.94478516 30.09007812 -3.57707031 29.68015625 -4.22851562 29.2578125 C-7.83638033 26.70562525 -8.86581971 25.58301043 -9.89453125 21.11328125 C-9.95525269 19.74308165 -9.99067777 18.37151272 -10 17 C-10.13535156 15.14955078 -10.13535156 15.14955078 -10.2734375 13.26171875 C-10.30695313 12.08222656 -10.34046875 10.90273438 -10.375 9.6875 C-10.42398438 8.49511719 -10.47296875 7.30273438 -10.5234375 6.07421875 C-10 3 -10 3 -7.7890625 1.08203125 C-4.94322102 -0.0220277 -3.01871737 -0.2587472 0 0 Z " fill="#F2DAB5" transform="translate(141,258)"/>
<path d="M0 0 C2.40525105 2.31703891 3.64533518 4.9772381 5 8 C5.31839844 8.62003906 5.63679688 9.24007812 5.96484375 9.87890625 C7.85330739 13.76896729 8.37583482 16.72680955 8 21 C6.96140424 23.54372652 5.90965028 25.84382963 4.625 28.25 C4.30789063 28.87390625 3.99078125 29.4978125 3.6640625 30.140625 C2.30832906 32.76170964 1.09815161 34.90184839 -1 37 C-4.693507 37.20146402 -7.47940432 37.17353189 -11 36 C-10.71125 35.175 -10.4225 34.35 -10.125 33.5 C-6.64056108 22.65952336 -6.2755171 14.86468328 -10 4 C-10.33 3.01 -10.66 2.02 -11 1 C-7.46171092 -0.76914454 -3.8294491 -0.91588211 0 0 Z " fill="#F3DBB5" transform="translate(377,196)"/>
<path d="M0 0 C1.64935547 0.46792969 1.64935547 0.46792969 3.33203125 0.9453125 C12.12396173 3.31014855 19.07376484 4.76969185 28 2 C29.10021484 1.70609375 29.10021484 1.70609375 30.22265625 1.40625 C31.82512102 0.97297921 33.41493288 0.49313199 35 0 C36.56918492 1.56918492 36.28258943 3.14085159 36.375 5.3125 C36.42398438 6.09238281 36.47296875 6.87226563 36.5234375 7.67578125 C35.74152619 11.14770086 33.91704041 12.07395414 31 14 C28.0625 15.51953125 28.0625 15.51953125 25 16.8125 C23.989375 17.25207031 22.97875 17.69164062 21.9375 18.14453125 C16.1553368 19.8284325 11.87707913 17.17390649 6.75 14.5625 C5.79480469 14.09360352 5.79480469 14.09360352 4.8203125 13.61523438 C0.12673241 11.25346482 0.12673241 11.25346482 -1 9 C-0.91348369 7.45386986 -0.75997364 5.91090613 -0.5625 4.375 C-0.46066406 3.55773437 -0.35882813 2.74046875 -0.25390625 1.8984375 C-0.17011719 1.27195312 -0.08632812 0.64546875 0 0 Z " fill="#F2DBB5" transform="translate(232,331)"/>
<path d="M0 0 C0.70125 0.01417969 1.4025 0.02835938 2.125 0.04296875 C3.176875 0.05263672 3.176875 0.05263672 4.25 0.0625 C6.125 0.23046875 6.125 0.23046875 8.125 1.23046875 C7.9084375 1.96910156 7.691875 2.70773438 7.46875 3.46875 C4.77646258 13.27814908 3.64892735 21.73517467 7.46875 31.35546875 C8.125 33.23046875 8.125 33.23046875 8.125 36.23046875 C6.71345901 36.50795117 5.29520201 36.75140391 3.875 36.98046875 C3.08609375 37.1196875 2.2971875 37.25890625 1.484375 37.40234375 C-0.875 37.23046875 -0.875 37.23046875 -2.96484375 35.6484375 C-5.18920329 32.83273494 -6.67208694 30.04565435 -8.1875 26.79296875 C-8.71988281 25.68050781 -9.25226563 24.56804687 -9.80078125 23.421875 C-11.73204707 17.68425981 -9.40866878 13.84178298 -6.9375 8.54296875 C-6.15052734 6.83560547 -6.15052734 6.83560547 -5.34765625 5.09375 C-2.91190264 0.35792137 -2.91190264 0.35792137 0 0 Z " fill="#F4DDB6" transform="translate(124.875,195.76953125)"/>
<path d="M0 0 C3.5 0.375 3.5 0.375 6 2.5625 C7.60447133 5.57088375 7.63404884 7.05170584 7.5 10.375 C6.46101563 10.55933594 5.42203125 10.74367188 4.3515625 10.93359375 C-5.53820389 12.90869832 -11.55464065 15.72972071 -18.5 23.375 C-19.82874359 24.71290734 -21.1606472 26.04771344 -22.5 27.375 C-26.50390625 23.37109375 -26.50390625 23.37109375 -27.5 21.375 C-27.31682327 13.67241851 -23.19369825 7.94410255 -17.99853516 2.58544922 C-13.02517452 -1.43180755 -5.95120636 0.51990093 0 0 Z " fill="#F2DBB5" transform="translate(198.5,94.625)"/>
<path d="M0 0 C1.33203125 1.609375 1.33203125 1.609375 2.8125 3.75 C8.34389898 11.27111084 14.15819735 13.738391 23.203125 15.40625 C24.79730577 15.63954475 26.39827352 15.8258993 28 16 C27.51431981 22.31384248 27.51431981 22.31384248 25.31640625 25.24609375 C21.02685401 28.49400092 16.04837798 26.66513544 11 26 C9.7625 26.020625 8.525 26.04125 7.25 26.0625 C0.44829712 23.83886637 -3.64111829 16.02979969 -7 10 C-7.5 7.5 -7.5 7.5 -7 5 C-2.77777778 0 -2.77777778 0 0 0 Z " fill="#F2DAB5" transform="translate(178,307)"/>
<path d="M0 0 C5.19219349 2.15201413 10.24954785 5.81992516 14 10 C15.56055925 13.83095621 15.37541177 16.93400172 15 21 C15.09932012 22.83360228 15.20326371 24.66696175 15.3125 26.5 C15.42578125 28.90625 15.42578125 28.90625 15 31 C12.06108627 34.07154879 9.13041445 34.53063472 5 35 C4.81824219 34.04738281 4.63648438 33.09476563 4.44921875 32.11328125 C4.19785156 30.85902344 3.94648438 29.60476562 3.6875 28.3125 C3.44386719 27.07113281 3.20023437 25.82976562 2.94921875 24.55078125 C0.73692612 16.27516806 -4.80550756 10.35015822 -12 6 C-8.30295214 0.62247584 -6.90565772 -0.83553459 0 0 Z " fill="#F3DBB5" transform="translate(354,136)"/>
<path d="M0 0 C0.66 0 1.32 0 2 0 C2.96520574 3.28968992 3.92085401 6.58208688 4.875 9.875 C5.14441406 10.7928125 5.41382813 11.710625 5.69140625 12.65625 C7.44583373 18.73255983 8.83777186 24.78264364 10 31 C5.05 31 0.1 31 -5 31 C-7.95772761 25.08454478 -7.70779206 19.51028539 -7 13 C-5.33451145 8.18927656 -2.80855456 4.21283184 0 0 Z " fill="#263B37" transform="translate(194,187)"/>
<path d="M0 0 C2.75329021 1.79562405 4.52627461 3.05254922 6 6 C6.37712577 10.99691647 6.09290612 13.99067725 3 18 C-0.7373856 20.4915904 -2.57331583 20.45793285 -7 20 C-9.75329021 18.20437595 -11.52627461 16.94745078 -13 14 C-13.5811138 6.91041162 -13.5811138 6.91041162 -11.125 3.0625 C-7.52072687 -0.4357651 -4.96784874 -0.42100413 0 0 Z " fill="#223835" transform="translate(353,368)"/>
<path d="M0 0 C0.3125 2.3125 0.3125 2.3125 0 5 C-3.83142305 7.90259322 -7.64798375 8.77203419 -12.3125 9.6875 C-13.56675781 9.93886719 -14.82101562 10.19023437 -16.11328125 10.44921875 C-17.06589844 10.63097656 -18.01851563 10.81273437 -19 11 C-18.39671875 11.45890625 -17.7934375 11.9178125 -17.171875 12.390625 C-16.37265625 13.00421875 -15.5734375 13.6178125 -14.75 14.25 C-13.56664062 15.15492188 -13.56664062 15.15492188 -12.359375 16.078125 C-6.14303959 21.14176245 -6.14303959 21.14176245 -5.5625 24.625 C-5.706875 25.40875 -5.85125 26.1925 -6 27 C-6.99 27.66 -7.98 28.32 -9 29 C-9.37125 28.236875 -9.7425 27.47375 -10.125 26.6875 C-12.97220932 22.60649998 -16.37908246 21.31782697 -21.1875 20.375 C-24.55410888 18.72910232 -24.69582812 17.98929529 -25.875 14.5625 C-26.65184375 11.85247611 -27 9.84141196 -27 7 C-24.25 4.9375 -24.25 4.9375 -21 3 C-20.278125 2.566875 -19.55625 2.13375 -18.8125 1.6875 C-17 1 -17 1 -14 2 C-12.50323294 2.11659598 -11.00124939 2.17498959 -9.5 2.1875 C-8.33984375 2.20876953 -8.33984375 2.20876953 -7.15625 2.23046875 C-4.26223061 1.92114421 -2.90980304 0 0 0 Z " fill="#F2DBB5" transform="translate(382,234)"/>
<path d="M0 0 C1.66666667 1.66666667 3.33333333 3.33333333 5 5 C5.61875 5.45375 6.2375 5.9075 6.875 6.375 C8.77783361 9.12353744 7.57154562 11.83051974 7 15 C6.69087816 19.36024493 6.48581599 23.22872399 9 27 C6.125 27.1875 6.125 27.1875 3 27 C0.59723991 23.39585987 0.09059164 19.99286955 -0.625 15.8125 C-0.7590625 15.06291016 -0.893125 14.31332031 -1.03125 13.54101562 C-1.36045419 11.69512072 -1.68106498 9.84769691 -2 8 C-2.79664063 9.13888672 -2.79664063 9.13888672 -3.609375 10.30078125 C-4.31578125 11.29464844 -5.0221875 12.28851563 -5.75 13.3125 C-6.44609375 14.29863281 -7.1421875 15.28476562 -7.859375 16.30078125 C-9.78941763 18.7344664 -11.33743672 20.42865118 -14 22 C-16.75 21.6875 -16.75 21.6875 -19 21 C-19 20.01 -19 19.02 -19 18 C-17.824375 17.319375 -17.824375 17.319375 -16.625 16.625 C-13.45301261 14.66138876 -12.98772338 13.53934209 -12 10 C-11.62406934 8.0075675 -11.28020455 6.0081326 -11 4 C-5.555 2.02 -5.555 2.02 0 0 Z " fill="#F1DAB4" transform="translate(221,319)"/>
<path d="M0 0 C2.86724686 0.57344937 3.8614515 0.8614515 6 3 C5.70181304 10.15648714 2.95052513 17.0742123 -1 23 C-0.31292969 22.65066406 0.37414062 22.30132812 1.08203125 21.94140625 C2.43361328 21.25884766 2.43361328 21.25884766 3.8125 20.5625 C5.15248047 19.88380859 5.15248047 19.88380859 6.51953125 19.19140625 C9.8987736 17.56830559 12.47717671 16.87667503 16.1875 16.9375 C18.0746875 16.9684375 18.0746875 16.9684375 20 17 C20.66 18.32 21.32 19.64 22 21 C20.515 21.0309375 20.515 21.0309375 19 21.0625 C15.29638772 21.52729596 13.88439478 22.93941368 11.375 25.625 C8.63185617 28.28682534 7.48007284 28.96633972 3.6015625 29.23828125 C0.35913708 28.96749301 -2.79938049 28.58060019 -6 28 C-6.64344619 23.64877477 -7.13925699 19.40266338 -7 15 C-4.6875 11.9375 -4.6875 11.9375 -2 10 C0.24549499 6.68522169 0.17948898 3.94875762 0 0 Z " fill="#F3DBB5" transform="translate(332,110)"/>
<path d="M0 0 C0.763125 0.0825 1.52625 0.165 2.3125 0.25 C1.9825 0.91 1.6525 1.57 1.3125 2.25 C-0.28114159 7.03092476 -0.23586004 11.49524787 1.25 16.25 C1.32895979 20.04006999 0.32193911 20.82428656 -2.125 23.625 C-3.8884375 25.419375 -3.8884375 25.419375 -5.6875 27.25 C-9.6475 26.26 -13.6075 25.27 -17.6875 24.25 C-17.914375 22.868125 -18.14125 21.48625 -18.375 20.0625 C-19.37440294 15.4896923 -21.02936573 13.26796077 -24.6875 10.25 C-25.3475 9.59 -26.0075 8.93 -26.6875 8.25 C-24.6875 6.25 -24.6875 6.25 -22.35546875 5.82421875 C-18.58387797 6.42612709 -17.42929971 8.17951104 -15 11.0625 C-13.84951172 12.40248047 -13.84951172 12.40248047 -12.67578125 13.76953125 C-10.6875 16.25 -10.6875 16.25 -8.6875 19.25 C-6.26214164 16.82464164 -6.75788828 10.95840624 -6.3828125 7.66796875 C-5.5019722 3.33799538 -4.68855259 0.43614443 0 0 Z " fill="#F3DCB6" transform="translate(227.6875,81.75)"/>
<path d="M0 0 C0.680625 0.94875 1.36125 1.8975 2.0625 2.875 C5.00791817 6.72949786 8.3647211 7.08496577 12.98828125 7.7734375 C13.98408203 7.88558594 13.98408203 7.88558594 15 8 C14.34 9.65 13.68 11.3 13 13 C6.50734271 13.5645789 1.8939592 11.565727 -4 9 C-4.99 8.67 -5.98 8.34 -7 8 C-6.65066406 8.71285156 -6.30132812 9.42570312 -5.94140625 10.16015625 C-1 20.56090652 -1 20.56090652 -1 26 C-2.3125 27.9375 -2.3125 27.9375 -4 29 C-4.66 29 -5.32 29 -6 29 C-6.23783203 28.00419922 -6.23783203 28.00419922 -6.48046875 26.98828125 C-7.91804769 21.11918985 -7.91804769 21.11918985 -11.75 16.625 C-14 14 -14 14 -14.09765625 11.03515625 C-13.83884708 7.9968075 -13.4848647 5.01000163 -13 2 C-11.39658445 1.66307215 -9.79223445 1.33058907 -8.1875 1 C-7.29417969 0.814375 -6.40085937 0.62875 -5.48046875 0.4375 C-3 0 -3 0 0 0 Z " fill="#F3DCB6" transform="translate(339,289)"/>
<path d="M0 0 C1.5625 1.125 1.5625 1.125 3 3 C2.85989642 6.78798575 2.47787207 8.5032871 -0.1796875 11.265625 C-1.51386719 12.24789062 -1.51386719 12.24789062 -2.875 13.25 C-3.75929688 13.91515625 -4.64359375 14.5803125 -5.5546875 15.265625 C-7.34991393 16.53891659 -9.16871241 17.77914161 -11 19 C-9.97519531 19.10957031 -8.95039063 19.21914062 -7.89453125 19.33203125 C-6.53378133 19.49156745 -5.17310806 19.6517584 -3.8125 19.8125 C-3.13896484 19.88275391 -2.46542969 19.95300781 -1.77148438 20.02539062 C2.46440828 20.5419629 5.63898031 21.31118425 9 24 C9.3125 27.1875 9.3125 27.1875 9 30 C8.154375 29.505 7.30875 29.01 6.4375 28.5 C0.53699817 25.92523556 -4.1195709 26.7051984 -10 29 C-10.763125 28.21625 -11.52625 27.4325 -12.3125 26.625 C-14.90891805 23.92742283 -14.90891805 23.92742283 -18 22 C-16.66780895 13.20753909 -16.66780895 13.20753909 -14 10 C-11.22940294 8.77241238 -8.44200443 7.91995577 -5.54296875 7.04296875 C-2.65168686 6.13226146 -2.65168686 6.13226146 -0.8125 2.75 C-0.544375 1.8425 -0.27625 0.935 0 0 Z " fill="#F4DCB6" transform="translate(373,165)"/>
<path d="M0 0 C2 0.66666667 4 1.33333333 6 2 C7.03125 2.144375 8.0625 2.28875 9.125 2.4375 C13.32206209 4.718512 13.61551385 7.87535465 14.98828125 12.2890625 C16.34481265 15.92393813 18.01793738 17.59778289 21 20 C18 22 18 22 16.06640625 21.890625 C13.29067239 20.69427846 11.90176857 19.03596958 9.9375 16.75 C9.26589844 15.98171875 8.59429687 15.2134375 7.90234375 14.421875 C6.03496707 12.04451659 4.49389152 9.62478137 3 7 C2.89042969 8.10859375 2.78085937 9.2171875 2.66796875 10.359375 C2.50847238 11.82298873 2.34827951 13.28652667 2.1875 14.75 C2.11724609 15.47960937 2.04699219 16.20921875 1.97460938 16.9609375 C1.50868232 21.06109556 1.10884158 24.13030008 -2 27 C-5.1875 27.25 -5.1875 27.25 -8 27 C-7.505 26.319375 -7.01 25.63875 -6.5 24.9375 C-4.64407238 21.30297508 -4.64523406 19.04433175 -5 15 C-5.680625 13.515 -5.680625 13.515 -6.375 12 C-7 9 -7 9 -5.83203125 7.140625 C-4.75199754 5.89897105 -3.63483965 4.68848696 -2.48046875 3.515625 C-0.89750585 2.04924078 -0.89750585 2.04924078 0 0 Z " fill="#F4DDB6" transform="translate(277,319)"/>
<path d="M0 0 C2.02910711 0.25327449 4.04962145 0.57730068 6.0625 0.9375 C7.16722656 1.13214844 8.27195313 1.32679688 9.41015625 1.52734375 C10.69212891 1.76130859 10.69212891 1.76130859 12 2 C13.17310009 6.02205745 14.0206797 9.79685101 14 14 C12.50090113 16.51393827 10.82625605 18.18272228 8.6953125 20.17578125 C6.08023353 22.98970263 6.07811291 25.25058053 6 29 C2.125 28.125 2.125 28.125 1 27 C1.24485117 19.40961388 3.59134901 13.72925565 7 7 C6.31035156 7.34933594 5.62070313 7.69867188 4.91015625 8.05859375 C-1.22120059 11.0275498 -6.19154148 12.66515778 -13 13 C-13.99 11.35 -14.98 9.7 -16 8 C-15.33613281 7.91363281 -14.67226562 7.82726562 -13.98828125 7.73828125 C-8.11471284 6.80365504 -4.85451295 5.84922597 -1 1 C-0.67 0.67 -0.34 0.34 0 0 Z " fill="#F4DCB6" transform="translate(161,289)"/>
<path d="M0 0 C0.56976563 0.32613281 1.13953125 0.65226563 1.7265625 0.98828125 C4.1753759 2.07804529 5.71651665 2.23880406 8.375 2.1875 C9.16132812 2.1771875 9.94765625 2.166875 10.7578125 2.15625 C13.19356699 2.05204048 13.19356699 2.05204048 16.25 1.1875 C19 1 19 1 21.6875 3.3125 C22.450625 4.199375 23.21375 5.08625 24 6 C24.99 6.66 25.98 7.32 27 8 C26.566875 9.0209375 26.566875 9.0209375 26.125 10.0625 C24.87402645 13.32893093 23.92552045 16.62846123 23 20 C21.7625 20.28875 20.525 20.5775 19.25 20.875 C13.33498707 22.31520008 13.33498707 22.31520008 9.25 26.625 C8.8375 27.40875 8.425 28.1925 8 29 C7.34 28.67 6.68 28.34 6 28 C5.5625 25.4375 5.5625 25.4375 6 22 C9.49994352 17.28268481 14.11789094 14.16714724 19 11 C17.87980469 10.80664062 16.75960937 10.61328125 15.60546875 10.4140625 C14.13274651 10.1514114 12.66009381 9.88837017 11.1875 9.625 C10.44951172 9.49867188 9.71152344 9.37234375 8.95117188 9.2421875 C5.39405354 8.59836518 3.04505916 8.03003944 0 6 C-0.1875 2.875 -0.1875 2.875 0 0 Z " fill="#F4DCB6" transform="translate(118,234)"/>
<path d="M0 0 C-3.89472 6.73034947 -8.3431157 9.63536744 -15.390625 12.7734375 C-18.08682483 13.86074049 -18.08682483 13.86074049 -20 16 C-20.04083359 18.33334806 -19.98310001 20.66879968 -19.875 23 C-19.67956261 29.7694625 -20.83972324 35.00393918 -24 41 C-26.87536635 38.37466551 -27.86621362 36.42120618 -28.23828125 32.46875 C-28.46634758 23.3460967 -27.22653739 15.03127747 -20.8125 8.125 C-14.38766572 2.42776447 -8.67616775 -0.78874252 0 0 Z " fill="#F1DAB4" transform="translate(173,142)"/>
<path d="M0 0 C4 4.37810945 4 4.37810945 4 7 C-3.48958764 6.85340665 -7.65447278 6.34552722 -13 1 C-15.68962978 -0.90876952 -16.88649223 -1 -20.25 -1 C-24.48443597 0.12918293 -26.80918192 1.83221931 -30.10546875 4.625 C-34.09374879 7.51958675 -38.20787836 7.09215619 -43 7 C-40.18141753 1.01051226 -35.3830966 -2.61985603 -29.34765625 -5.08203125 C-18.2033261 -8.5050443 -9.74729486 -6.37594396 0 0 Z " fill="#C6B89A" transform="translate(269,104)"/>
<path d="M0 0 C2.8125 -0.3125 2.8125 -0.3125 6 0 C9.31619506 4.08147085 9.69593323 8.26604845 10.1875 13.3125 C10.3102832 14.42334961 10.3102832 14.42334961 10.43554688 15.55664062 C10.63442588 17.36994923 10.81869827 19.18484969 11 21 C11.36351562 20.41992188 11.72703125 19.83984375 12.1015625 19.2421875 C15.31100409 14.25520903 18.3257087 9.70048061 23 6 C26.3125 6 26.3125 6 29 7 C29.33 7.66 29.66 8.32 30 9 C28.63875 9.4021875 28.63875 9.4021875 27.25 9.8125 C23.47684141 12.35212597 23.39177269 13.23654876 22.1875 17.4375 C20.58938484 22.55688585 20.58938484 22.55688585 17.859375 24.609375 C14.42488837 26.1382755 11.77747883 27 8 27 C6.68359375 25.50390625 6.68359375 25.50390625 5.4375 23.5625 C3.69463071 20.76740279 3.69463071 20.76740279 1 19 C1.33 17.989375 1.66 16.97875 2 15.9375 C3.05181305 12.20696882 3.37395059 8.88908615 3 5 C1.60414215 3.18523997 1.60414215 3.18523997 0 2 C0 1.34 0 0.68 0 0 Z " fill="#F4DCB6" transform="translate(269,82)"/>
<path d="M0 0 C4.6341167 4.6341167 5.16358423 10.05174438 5.20654297 16.28076172 C5.17872366 19.52278143 5.10618023 22.75953655 5 26 C9.92609534 28.8634288 9.92609534 28.8634288 15.0625 31.3125 C18.88224681 33.50682264 21.52781931 36.36186174 24 40 C24 40.66 24 41.32 24 42 C16.00913236 41.70404194 10.08386578 38.66434917 4.13671875 33.328125 C-2.30739853 26.35632566 -3.50008418 19.41374409 -3.3046875 10.078125 C-2.91337363 6.12485158 -1.92495855 3.44888406 0 0 Z " fill="#C3B698" transform="translate(148,245)"/>
<path d="M0 0 C1.051875 1.1446875 1.051875 1.1446875 2.125 2.3125 C5.62815745 5.58719066 8.81542445 7.84758775 13.6875 8.1875 C16 9 16 9 16.94140625 10.6953125 C18.22975076 14.068659 19.14904699 17.49375843 20 21 C18.70982586 21.98113243 17.41780894 22.95984199 16.125 23.9375 C15.40570313 24.48277344 14.68640625 25.02804688 13.9453125 25.58984375 C12 27 12 27 10 28 C9.278125 27.690625 8.55625 27.38125 7.8125 27.0625 C4.30635281 25.73795551 1.72645504 25.6672808 -2 26 C-4.87146994 27.36997157 -4.87146994 27.36997157 -7 29 C-7.3125 26.1875 -7.3125 26.1875 -7 23 C-3.0969896 19.87759168 0.98092856 19.31646295 5.8125 18.8125 C6.50537109 18.73064453 7.19824219 18.64878906 7.91210938 18.56445312 C9.60686984 18.36575707 11.30330194 18.18140797 13 18 C12.40832031 17.62488281 11.81664062 17.24976563 11.20703125 16.86328125 C2.04593466 10.93023827 2.04593466 10.93023827 -1 7 C-1.375 3.75 -1.375 3.75 -1 1 C-0.67 0.67 -0.34 0.34 0 0 Z " fill="#F7DEB8" transform="translate(125,166)"/>
<path d="M0 0 C0.061875 1.19625 0.12375 2.3925 0.1875 3.625 C0.76851804 8.4354876 2.61304541 10.61304541 6 14 C6.66 14.33 7.32 14.66 8 15 C7.34 19.29 6.68 23.58 6 28 C-4.79307765 29.6977875 -4.79307765 29.6977875 -8.07421875 27.80078125 C-9.18724461 26.72926685 -10.27405173 25.62980545 -11.33203125 24.50390625 C-14.17981307 21.93623412 -17.29159733 21.65059696 -21 21 C-20.34 19.68 -19.68 18.36 -19 17 C-11.67889195 16.14870837 -5.65030678 19.19987083 1 22 C0.65066406 21.29875 0.30132812 20.5975 -0.05859375 19.875 C-2.781886 14.19697423 -5 9.35488891 -5 3 C-3.43499713 0.61523372 -2.86210272 0 0 0 Z " fill="#F7DEB8" transform="translate(167,110)"/>
<path d="M0 0 C1.12758089 3.38274266 0.81750262 4.76778223 0.0625 8.1875 C-0.13214844 9.08855469 -0.32679688 9.98960937 -0.52734375 10.91796875 C-0.68332031 11.60503906 -0.83929688 12.29210937 -1 13 C-1.66 13 -2.32 13 -3 13 C-3.268125 13.53625 -3.53625 14.0725 -3.8125 14.625 C-4.71297248 16.42594497 -5.68451759 18.19156765 -6.6875 19.9375 C-8.14137183 22.80882959 -8.14137183 22.80882959 -8.0625 25.375 C-6.99769935 28.00568395 -5.87055745 29.41321602 -4.0625 31.5625 C-0.09836236 36.51529546 0.40358922 41.83023336 1 48 C-4.51479131 45.43579767 -8.33045226 41.46621681 -11 36 C-13.78742277 27.19761231 -14.0239618 19.92707642 -10.27734375 11.3671875 C-7.69402093 6.57974521 -4.51256943 3.00837962 0 0 Z " fill="#C6B89A" transform="translate(146,190)"/>
<path d="M0 0 C8.91953073 0.0372423 14.21837817 2.71950884 20.7890625 8.6015625 C26.31433505 14.34457978 28.08958387 21.36234114 28.375 29.1875 C28.24536893 33.74619258 27.09866459 36.97755953 25 41 C21.44743438 37.28595412 20.58029432 32.96555643 20 28 C20.10844503 25.91573935 20.23395692 23.83230873 20.375 21.75 C20.54503939 17.56957225 20.54503939 17.56957225 18.40234375 14.1953125 C15.51563012 12.37155697 12.68424226 11.21695486 9.4375 10.1875 C5.36722539 8.2045457 2.7159339 4.56123898 0 1 C0 0.67 0 0.34 0 0 Z " fill="#F0D9B4" transform="translate(327,142)"/>
<path d="M0 0 C3.23260503 2.81096089 3.78595568 5.03149403 4.23828125 9.19140625 C4.48202609 16.97841253 3.04248886 24.05994393 -1.80078125 30.33203125 C-8.3754479 37.21309013 -14.42450257 40.56573708 -24 41 C-23.09066991 39.72390677 -22.17217147 38.45434447 -21.25 37.1875 C-20.73953125 36.47980469 -20.2290625 35.77210938 -19.703125 35.04296875 C-16.62808233 31.35432811 -13.02824463 29.39532962 -8.75 27.3125 C-7.85796875 26.87550781 -6.9659375 26.43851562 -6.046875 25.98828125 C-5.03367187 25.49908203 -5.03367187 25.49908203 -4 25 C-4.04640625 24.03320312 -4.0928125 23.06640625 -4.140625 22.0703125 C-4.37020712 13.7889574 -3.95570096 7.50523619 0 0 Z " fill="#F8DFB8" transform="translate(351,246)"/>
<path d="M0 0 C1.95646598 0.94200214 3.59198148 1.96246987 5.31640625 3.27734375 C6.36828125 4.01984375 7.42015625 4.76234375 8.50390625 5.52734375 C14.93736084 11.81783268 17.11393758 17.2950973 17.31640625 26.27734375 C9.32136604 21.72951568 6.24922062 15.24556764 2.31640625 7.27734375 C1.98640625 6.94734375 1.65640625 6.61734375 1.31640625 6.27734375 C-1.37564338 6.28329303 -4.0556956 6.33254369 -6.74609375 6.40234375 C-13.06841278 6.50245756 -17.94983553 6.20522029 -23.68359375 3.27734375 C-23.68359375 2.61734375 -23.68359375 1.95734375 -23.68359375 1.27734375 C-17.70831994 -2.65375744 -6.75964137 -1.82028188 0 0 Z " fill="#C8BA9B" transform="translate(304.68359375,110.72265625)"/>
<path d="M0 0 C7.15351532 0.02629969 11.78392564 0.70950015 17.1484375 5.625 C19.50706792 7.37655677 21.06514522 7.84436376 24 8 C26.50619318 6.89747361 26.50619318 6.89747361 28.875 5.1875 C34.49373831 1.58916982 39.17172807 -0.41383466 46 0 C44.25788517 4.70371005 40.521896 7.67641311 36.19140625 9.94921875 C28.05319577 13.53703197 20.14509333 14.44775134 11.6875 11.3125 C6.02939071 8.7987717 2.65008051 5.58409822 0 0 Z " fill="#C6B89A" transform="translate(227,318)"/>
<path d="M0 0 C6.04088944 1.94537118 8.01201083 5.65081249 11 11 C14.68799723 18.36223327 14.93360805 24.69966233 12.4375 32.5 C10.33351278 37.89522437 7.38537676 42.19459186 3 46 C1.515 46.495 1.515 46.495 0 47 C0.75330375 39.32409452 2.16696787 34.18318694 6.7109375 27.94921875 C8.19722505 25.93998483 8.19722505 25.93998483 8.75 22.9375 C7.96103875 19.84740176 7.12368302 18.77243505 5.125 16.375 C1.07174339 11.46138232 0.5982384 6.18867315 0 0 Z " fill="#D7C6A4" transform="translate(353,191)"/>
<path d="M0 0 C7.5273523 4.93654267 7.5273523 4.93654267 9.5 9.375 C9.665 10.24125 9.83 11.1075 10 12 C8.68 11.67 7.36 11.34 6 11 C6 12.32 6 13.64 6 15 C7.65 14.34 9.3 13.68 11 13 C11.48984375 13.97582031 11.9796875 14.95164062 12.484375 15.95703125 C14.76593009 19.38164215 14.76593009 19.38164215 18.828125 19.69921875 C20.30193248 19.72066502 21.77630644 19.71570847 23.25 19.6875 C29.48194644 19.78727987 34.31017688 20.21561847 40 23 C37.275392 25.98409447 35.27685489 26.89212168 31.1796875 27.23828125 C21.96824103 27.44515771 16.273424 25.95852431 8.75 20.75 C3.83437109 15.83437109 0.05801062 10.42262646 -0.0625 3.3125 C-0.041875 2.219375 -0.02125 1.12625 0 0 Z " fill="#D2C2A1" transform="translate(178,292)"/>
<path d="M0 0 C1.92005859 -0.00773437 1.92005859 -0.00773437 3.87890625 -0.015625 C7.23136658 0.23461353 9.48275318 0.6873406 12.4375 2.25 C12.9325 3.24 12.9325 3.24 13.4375 4.25 C4.73813782 8.20425554 -3.29717104 7.13291883 -12.5625 6.25 C-12.84738281 6.97316406 -13.13226563 7.69632812 -13.42578125 8.44140625 C-16.49313092 16.02018431 -19.36005182 22.78702203 -26.5625 27.25 C-27.2225 27.25 -27.8825 27.25 -28.5625 27.25 C-28.24804487 24.91404762 -27.9121418 22.58094534 -27.5625 20.25 C-27.48 19.486875 -27.3975 18.72375 -27.3125 17.9375 C-26.5625 16.25 -26.5625 16.25 -24.1875 14.9375 C-21.5625 14.25 -21.5625 14.25 -18.5625 15.25 C-18.5625 13.93 -18.5625 12.61 -18.5625 11.25 C-19.8825 10.92 -21.2025 10.59 -22.5625 10.25 C-21.19855018 8.94667017 -19.82075589 7.65782147 -18.4375 6.375 C-17.67179688 5.65570313 -16.90609375 4.93640625 -16.1171875 4.1953125 C-11.04793095 0.33523641 -6.24153875 -0.02519289 0 0 Z " fill="#F3DCB6" transform="translate(205.5625,109.75)"/>
<path d="M0 0 C-0.22645895 8.8936604 -3.37825099 14.29895517 -9.25 20.8125 C-15.55811345 26.75433589 -22.76989623 27.49826326 -31.1796875 27.3046875 C-34.98646965 26.89342849 -37.65377442 25.82521395 -41 24 C-36.49667324 20.99778216 -32.42232421 19.68103975 -27 20 C-27 21.65 -27 23.3 -27 25 C-26.01 25 -25.02 25 -24 25 C-24 23.68 -24 22.36 -24 21 C-21.03 20.67 -18.06 20.34 -15 20 C-14.7525 19.34 -14.505 18.68 -14.25 18 C-13.8375 17.01 -13.425 16.02 -13 15 C-12.75507813 14.38382812 -12.51015625 13.76765625 -12.2578125 13.1328125 C-10.40569049 8.92046421 -5.31916545 0 0 0 Z " fill="#D7C5A4" transform="translate(322,292)"/>
<path d="M0 0 C9.9609375 -0.1953125 9.9609375 -0.1953125 13 0 C15 2 15 2 15.25 4.9375 C15 8 15 8 13 11 C13.26259783 13.48051222 13.26259783 13.48051222 14 16 C14.185625 16.763125 14.37125 17.52625 14.5625 18.3125 C14.706875 18.869375 14.85125 19.42625 15 20 C11.70851757 18.86500606 11.0040131 18.00716624 9.25 14.875 C8.8375 13.92625 8.425 12.9775 8 12 C6.68 12 5.36 12 4 12 C3.67 14.64 3.34 17.28 3 20 C2.01 20 1.02 20 0 20 C0 13.4 0 6.8 0 0 Z " fill="#253A37" transform="translate(365,368)"/>
<path d="M0 0 C1.86621094 0.26586914 1.86621094 0.26586914 4 1 C5.18847656 2.64233398 5.18847656 2.64233398 6.140625 4.74609375 C6.48867188 5.50083984 6.83671875 6.25558594 7.1953125 7.03320312 C7.71738281 8.22333008 7.71738281 8.22333008 8.25 9.4375 C8.61351562 10.22705078 8.97703125 11.01660156 9.3515625 11.83007812 C12 17.66958412 12 17.66958412 12 20 C11.01 20 10.02 20 9 20 C8.67 19.34 8.34 18.68 8 18 C7.113125 18.33 6.22625 18.66 5.3125 19 C2.2331346 19.92961974 0.1675634 20.42804911 -3 20 C-4.875 18.9375 -4.875 18.9375 -6 17 C-6 10.57451495 -3.02133173 5.5409663 0 0 Z " fill="#354640" transform="translate(300,368)"/>
<path d="M0 0 C15.48837209 4.73255814 15.48837209 4.73255814 19 10 C18.54716981 16.45283019 18.54716981 16.45283019 16 19 C14.7315625 18.319375 14.7315625 18.319375 13.4375 17.625 C7.39534619 14.97999076 0.50000839 14.71106913 -6 14 C-4.68 12.02 -3.36 10.04 -2 8 C1.82329586 8.5166616 3.37334885 9.25914662 6 12 C8.10332891 12.71447643 8.10332891 12.71447643 10 13 C7.55226831 7.79857016 3.59788619 5.17811135 -1 2 C-0.67 1.34 -0.34 0.68 0 0 Z " fill="#F2DBB5" transform="translate(250,79)"/>
<path d="M0 0 C1.32 0 2.64 0 4 0 C5.33934716 2.95564708 6.67044247 5.9149378 8 8.875 C8.3815625 9.71675781 8.763125 10.55851562 9.15625 11.42578125 C9.5171875 12.23144531 9.878125 13.03710938 10.25 13.8671875 C10.58515625 14.61081543 10.9203125 15.35444336 11.265625 16.12060547 C12 18 12 18 12 20 C11.01 19.67 10.02 19.34 9 19 C8.3125 16.9375 8.3125 16.9375 8 15 C7.34 15 6.68 15 6 15 C5.690625 15.639375 5.38125 16.27875 5.0625 16.9375 C4 19 4 19 3 20 C0.0625 20.1875 0.0625 20.1875 -3 20 C-5 18 -5 18 -5.375 14.8125 C-4.91138747 10.09910598 -3.48427986 7.98990402 -1 4 C-0.23959428 1.73014106 -0.23959428 1.73014106 0 0 Z " fill="#293E39" transform="translate(122,368)"/>
<path d="M0 0 C11.49149826 -0.37069349 11.49149826 -0.37069349 13.859375 1.35546875 C15.50674289 3.73061218 15.49361113 5.17936498 15 8 C13.5 9.8125 13.5 9.8125 11 11 C8.27920155 11.23884872 5.74185932 11.13709297 3 11 C3 13.97 3 16.94 3 20 C2.01 20 1.02 20 0 20 C0 13.4 0 6.8 0 0 Z " fill="#BAAF93" transform="translate(140,368)"/>
<path d="M0 0 C1.45606519 4.52092968 0.27032841 7.51648796 -1 12 C0.65 11.67 2.3 11.34 4 11 C2.33248852 14.94139078 -0.22710649 17.7892812 -3 21 C-6.34303236 18.85703054 -7.80854054 17.52399432 -9.1875 13.75 C-8.92657123 8.53142463 -6.56110823 5.68829067 -3 2 C-2.01 1.34 -1.02 0.68 0 0 Z " fill="#F4DDB6" transform="translate(180,101)"/>
<path d="M0 0 C0.99 0.33 1.98 0.66 3 1 C3.29348468 4.05224072 3.41093877 6.95483833 3 10 C-0.2145622 13.70161708 -4.40591873 15.41295374 -9 17 C-11.4375 16.6875 -11.4375 16.6875 -13 16 C-10.66666667 13.66666667 -8.33333333 11.33333333 -6 9 C-6.32041397 6.39719432 -6.32041397 6.39719432 -7 4 C-2.25 1.125 -2.25 1.125 0 0 Z " fill="#F7DEB8" transform="translate(265,331)"/>
<path d="M0 0 C2.4375 2 2.4375 2 4 4 C2.63016497 7.16115776 2.0109362 7.9927092 -1 10 C-1.99 10 -2.98 10 -4 10 C-4.33 9.34 -4.66 8.68 -5 8 C-9.3177458 8.50797009 -13.03302114 9.19682779 -17 11 C-15.8633152 6.16908959 -13.06174265 3.91609693 -9.16015625 1.17578125 C-5.89832532 -0.59964571 -3.6136471 -0.69493214 0 0 Z " fill="#F7DFB8" transform="translate(153,136)"/>
<path d="M0 0 C4.09646856 4.31207217 4.60750804 8.30886653 5 14 C3.68 14 2.36 14 1 14 C0.01 11.36 -0.98 8.72 -2 6 C-5.63 6 -9.26 6 -13 6 C-13 4.68 -13 3.36 -13 2 C-8.51975477 0.25161162 -4.80355934 -0.71163842 0 0 Z " fill="#31433E" transform="translate(316,99)"/>
<path d="M0 0 C5.55528097 1.11105619 6.3063537 1.9283872 9.8125 6.0625 C10.99779297 7.44115234 10.99779297 7.44115234 12.20703125 8.84765625 C12.79871094 9.55792969 13.39039063 10.26820313 14 11 C14 7.37 14 3.74 14 0 C14.66 0 15.32 0 16 0 C16 6.6 16 13.2 16 20 C15.34 19.01 14.68 18.02 14 17 C8.45232899 8.43506317 8.45232899 8.43506317 1 2 C1.165 3.299375 1.33 4.59875 1.5 5.9375 C2.0315638 10.65419287 2.07529541 15.25638935 2 20 C1.34 20 0.68 20 0 20 C0 13.4 0 6.8 0 0 Z " fill="#D4C3A2" transform="translate(227,368)"/>
<path d="M0 0 C2.93493396 0.41927628 3.88989537 0.87924008 5.9375 3.125 C7.84374372 5.28028033 7.84374372 5.28028033 10.5 5 C13.41591582 3.83363367 14.9524947 2.35083942 17 0 C17.99 0.33 18.98 0.66 20 1 C19.44897952 4.65749825 18.20075593 6.11940966 15.3125 8.375 C11.5160864 11.04128691 11.5160864 11.04128691 7.875 10.75 C4.27785248 8.56043194 1.83891578 6.10928871 -1 3 C-0.67 2.01 -0.34 1.02 0 0 Z " fill="#2D413C" transform="translate(240,336)"/>
<path d="M0 0 C0.99 0 1.98 0 3 0 C5.70654206 8.45794393 5.70654206 8.45794393 5 13 C2.10182904 16.45910728 -0.48178989 17.25135357 -4.8125 17.75 C-6.2072304 17.85011115 -7.60300686 17.93912884 -9 18 C-8.67 16.68 -8.34 15.36 -8 14 C-5.36 13.34 -2.72 12.68 0 12 C-0.08378906 11.21753906 -0.16757812 10.43507813 -0.25390625 9.62890625 C-0.35574219 8.61699219 -0.45757812 7.60507812 -0.5625 6.5625 C-0.66691406 5.55316406 -0.77132813 4.54382813 -0.87890625 3.50390625 C-0.91886719 2.67761719 -0.95882813 1.85132813 -1 1 C-0.67 0.67 -0.34 0.34 0 0 Z " fill="#2F423D" transform="translate(360,267)"/>
<path d="M0 0 C11.46294938 -0.36977256 11.46294938 -0.36977256 13.90625 1.3125 C15 3 15 3 14.6875 6.1875 C14.460625 7.115625 14.23375 8.04375 14 9 C12.68 9.33 11.36 9.66 10 10 C11.65 13.3 13.3 16.6 15 20 C11 19 11 19 9.515625 16.93359375 C9.09796875 16.10988281 8.6803125 15.28617187 8.25 14.4375 C7.82203125 13.61121094 7.3940625 12.78492188 6.953125 11.93359375 C6.63859375 11.29550781 6.3240625 10.65742188 6 10 C6.804375 9.79375 7.60875 9.5875 8.4375 9.375 C9.283125 8.92125 10.12875 8.4675 11 8 C11.89830839 4.94727535 11.89830839 4.94727535 12 2 C8.7 1.67 5.4 1.34 2 1 C2 7.27 2 13.54 2 20 C1.34 20 0.68 20 0 20 C0 13.4 0 6.8 0 0 Z " fill="#DDCAA8" transform="translate(273,368)"/>
<path d="M0 0 C0.33 0 0.66 0 1 0 C2.3374944 8.46110589 1.94848287 14.34028215 -2 22 C-4.2477975 19.94766315 -5.0022242 18.99332739 -6 16 C-6.068991 13.93854893 -6.08467727 11.87498599 -6.0625 9.8125 C-6.05347656 8.72582031 -6.04445312 7.63914063 -6.03515625 6.51953125 C-6.02355469 5.68808594 -6.01195312 4.85664063 -6 4 C-3.03 4.495 -3.03 4.495 0 5 C0 3.35 0 1.7 0 0 Z " fill="#D0C0A0" transform="translate(151,161)"/>
<path d="M0 0 C3.6181282 0.24120855 6.38895322 0.93837199 9.75 2.25 C9.42 3.57 9.09 4.89 8.75 6.25 C5.45 5.92 2.15 5.59 -1.25 5.25 C-2.57 8.22 -3.89 11.19 -5.25 14.25 C-6.24 14.25 -7.23 14.25 -8.25 14.25 C-8.59858377 9.36982725 -7.73426393 6.45413897 -5.25 2.25 C-3.25 0.25 -3.25 0.25 0 0 Z " fill="#2D403C" transform="translate(187.25,98.75)"/>
<path d="M0 0 C4.34869288 0.72951928 6.16441403 2.75312287 8.84765625 6.10546875 C10 8 10 8 10.25 11 C8.56521659 15.04348019 6.02344532 17.87484857 3 21 C2.01 20.67 1.02 20.34 0 20 C0.61454696 16.00544473 2.70646737 13.25533664 5 10 C3.7625 8.63875 3.7625 8.63875 2.5 7.25 C-0.03294997 4.46375503 0 4.12741739 0 0 Z " fill="#293D39" transform="translate(372,204)"/>
<path d="M0 0 C-1 3 -1 3 -2.84765625 3.94921875 C-5.92382812 4.97460938 -5.92382812 4.97460938 -9 6 C-9 9.63 -9 13.26 -9 17 C-10.32 17 -11.64 17 -13 17 C-14.12454908 12.50180368 -14.51136015 8.60224131 -14 4 C-9.38495738 0.00029639 -5.90897564 -1.4373184 0 0 Z " fill="#2A3E3A" transform="translate(149,144)"/>
<path d="M0 0 C3.66348695 1.7401563 6.84209244 4.10831026 9.5 7.1875 C9.5 8.1775 9.5 9.1675 9.5 10.1875 C4.84204276 9.55804632 4.84204276 9.55804632 3 7.5625 C2.505 7.10875 2.01 6.655 1.5 6.1875 C-1.57836998 6.34536513 -3.13528547 6.90014916 -5.5625 8.8125 C-7.5 10.1875 -7.5 10.1875 -9.75 9.875 C-10.3275 9.648125 -10.905 9.42125 -11.5 9.1875 C-9.85984935 4.26704805 -5.16908391 0.38768129 0 0 Z " fill="#2B3F3A" transform="translate(250.5,81.8125)"/>
<path d="M0 0 C1.32 0.33 2.64 0.66 4 1 C2.94496547 3.27238207 1.93701762 5.07464578 0.3125 7 C-1.19542809 8.88031198 -1.19542809 8.88031198 -0.9375 11 C-0.06165042 13.18806976 -0.06165042 13.18806976 2.125 15 C2.74375 15.66 3.3625 16.32 4 17 C3.75 19.25 3.75 19.25 3 21 C-1.23394447 19.43187242 -3.47032152 16.65398002 -6 13 C-6.6875 10.0625 -6.6875 10.0625 -6 7 C-4.21041299 4.44713092 -2.1956334 2.20870264 0 0 Z " fill="#293D39" transform="translate(124,204)"/>
<path d="M0 0 C1.32 0 2.64 0 4 0 C4.66 2.97 5.32 5.94 6 9 C11.94 8.505 11.94 8.505 18 8 C17.67 9.32 17.34 10.64 17 12 C13.98509443 13.00496852 11.95818308 13.10335303 8.8125 13.0625 C7.91144531 13.05347656 7.01039063 13.04445313 6.08203125 13.03515625 C5.39496094 13.02355469 4.70789063 13.01195312 4 13 C1.04952165 8.38987758 -0.5497272 5.63470383 0 0 Z " fill="#293D39" transform="translate(179,316)"/>
<path d="M0 0 C0.99 0 1.98 0 3 0 C2.67 3.96 2.34 7.92 2 12 C3.464375 12.45375 4.92875 12.9075 6.4375 13.375 C8.93359375 14.1484375 8.93359375 14.1484375 11 15 C11.33 15.66 11.66 16.32 12 17 C11.67 17.66 11.34 18.32 11 19 C5.71862571 18.48474397 2.42778844 16.74522883 -2 14 C-2.3690205 4.58997722 -2.3690205 4.58997722 0 0 Z " fill="#283D39" transform="translate(137,267)"/>
<path d="M0 0 C5.35898195 0.42871856 8.99745863 1.29032751 13 5 C13.71163842 9.80355934 12.74838838 13.51975477 11 18 C9.68 17.67 8.36 17.34 7 17 C7.66 13.7 8.32 10.4 9 7 C6.03 6.01 3.06 5.02 0 4 C0 2.68 0 1.36 0 0 Z " fill="#2A3E3A" transform="translate(352,143)"/>
<path d="M0 0 C1.32 0 2.64 0 4 0 C2.04986856 10.7371943 2.04986856 10.7371943 -1 13 C-5.48576155 13.57990834 -9.65531252 13.21730424 -14 12 C-14 10.68 -14 9.36 -14 8 C-10.37 8 -6.74 8 -3 8 C-2.01 5.36 -1.02 2.72 0 0 Z " fill="#273C38" transform="translate(317,316)"/>
<path d="M0 0 C0.99 0 1.98 0 3 0 C4.33934716 2.95564708 5.67044247 5.9149378 7 8.875 C7.3815625 9.71675781 7.763125 10.55851562 8.15625 11.42578125 C8.5171875 12.23144531 8.878125 13.03710938 9.25 13.8671875 C9.58515625 14.61081543 9.9203125 15.35444336 10.265625 16.12060547 C11 18 11 18 11 20 C10.01 19.67 9.02 19.34 8 19 C7.3125 16.9375 7.3125 16.9375 7 15 C6.34 15 5.68 15 5 15 C4.690625 15.639375 4.38125 16.27875 4.0625 16.9375 C3 19 3 19 2 20 C-0.9375 20.1875 -0.9375 20.1875 -4 20 C-6 18 -6 18 -6.3125 14.6875 C-5.98867205 10.86633018 -5.22414284 9.05819641 -3 6 C-2.67 6.66 -2.34 7.32 -2 8 C-2.33 8.66 -2.66 9.32 -3 10 C-3.04022391 12.3329866 -3.04320247 14.66706666 -3 17 C-0.58380177 17.25030977 -0.58380177 17.25030977 2 17 C4.29088677 14.2258729 4.29088677 14.2258729 3.8125 11.3125 C2.84646148 7.37403526 1.49472953 3.76931795 0 0 Z " fill="#DCC9A7" transform="translate(123,368)"/>
<path d="M0 0 C3 2 3 2 3.6875 4.125 C3.790625 4.74375 3.89375 5.3625 4 6 C-1.57737857 10.11844576 -6.05509386 11.82316211 -13 12 C-12.09066991 10.72390677 -11.17217147 9.45434447 -10.25 8.1875 C-9.73953125 7.47980469 -9.2290625 6.77210938 -8.703125 6.04296875 C-6.11758396 2.94150553 -3.83221332 1.27740444 0 0 Z " fill="#D0C0A0" transform="translate(340,275)"/>
<path d="M0 0 C2.75329021 1.79562405 4.52627461 3.05254922 6 6 C6.37712577 10.99691647 6.09290612 13.99067725 3 18 C-0.7373856 20.4915904 -2.57331583 20.45793285 -7 20 C-9.75329021 18.20437595 -11.52627461 16.94745078 -13 14 C-13.5811138 6.91041162 -13.5811138 6.91041162 -11.125 3.0625 C-7.52072687 -0.4357651 -4.96784874 -0.42100413 0 0 Z M-8.9375 2.9375 C-11.22180288 6.32934367 -11.6975765 8.07242183 -11.41796875 12.0625 C-10.7235205 15.28162462 -9.494992 16.8989541 -7 19 C-3.36633823 19.68131158 -1.75815295 19.5122655 1.3125 17.4375 C3.56378317 14.18564653 3.9319763 11.94537482 4 8 C3.19929552 4.56430342 3.19929552 4.56430342 1 2 C-3.3499943 0.46944645 -5.05687114 0.37793628 -8.9375 2.9375 Z " fill="#D0C0A0" transform="translate(353,368)"/>
<path d="M0 0 C2.39614126 -0.05425226 4.79103853 -0.09379027 7.1875 -0.125 C8.19780273 -0.15013672 8.19780273 -0.15013672 9.22851562 -0.17578125 C13.26748978 -0.21518588 16.41859848 0.07103421 20 2 C20.33 2.66 20.66 3.32 21 4 C15.34125577 6.27119666 11.11019598 7.6210724 5 6 C4.34 5.34 3.68 4.68 3 4 C3 3.01 3 2.02 3 1 C2.01 0.67 1.02 0.34 0 0 Z " fill="#D7C5A4" transform="translate(198,110)"/>
<path d="M0 0 C6.52396607 0.25786427 10.87818251 0.82167521 16 5 C15.67 6.65 15.34 8.3 15 10 C12.14362445 10.53557042 10.74238354 10.77914448 8 10 C4.93149041 7.31038464 2.39880563 4.29602124 0 1 C0 0.67 0 0.34 0 0 Z " fill="#D4C3A2" transform="translate(327,142)"/>
<path d="M0 0 C1.98 0 3.96 0 6 0 C6.3540919 6.51791392 6.03901852 11.17521449 3 17 C-0.41726993 13.42739962 -1.70055787 8.85951802 -2 4 C-1.04296875 1.71875 -1.04296875 1.71875 0 0 Z " fill="#D1C1A0" transform="translate(349,166)"/>
<path d="M0 0 C2.5213335 2.19246391 3.51052239 3.68847248 4 7 C4.06624507 8.74886981 4.08552595 10.50002748 4.0625 12.25 C4.05347656 13.14203125 4.04445313 14.0340625 4.03515625 14.953125 C4.02355469 15.62859375 4.01195312 16.3040625 4 17 C1.37886292 17 -0.50935112 16.68707555 -3 16 C-4.92932559 9.89046896 -2.54092546 5.51806129 0 0 Z " fill="#CDBE9E" transform="translate(351,246)"/>
<path d="M0 0 C1.65 0.33 3.3 0.66 5 1 C5.75 2.625 5.75 2.625 6 5 C3.61741224 9.30698556 0.66208568 12.72339702 -3 16 C-3.66 16 -4.32 16 -5 16 C-4.74357696 14.08135229 -4.46926564 12.16509006 -4.1875 10.25 C-4.03667969 9.18265625 -3.88585937 8.1153125 -3.73046875 7.015625 C-2.98679593 3.94548906 -2.07234528 2.33919522 0 0 Z " fill="#D1C1A1" transform="translate(358,222)"/>
<path d="M0 0 C9.9609375 -0.1953125 9.9609375 -0.1953125 13 0 C15 2 15 2 15.125 5.125 C15.08375 6.07375 15.0425 7.0225 15 8 C13.02 8.99 13.02 8.99 11 10 C11.185625 8.865625 11.37125 7.73125 11.5625 6.5625 C11.706875 5.386875 11.85125 4.21125 12 3 C10.28373595 1.07908908 10.28373595 1.07908908 3 1 C3 7.27 3 13.54 3 20 C2.01 20 1.02 20 0 20 C0 13.4 0 6.8 0 0 Z " fill="#C4B798" transform="translate(365,368)"/>
<path d="M0 0 C1.12758089 3.38274266 0.81750262 4.76778223 0.0625 8.1875 C-0.13214844 9.08855469 -0.32679688 9.98960937 -0.52734375 10.91796875 C-0.68332031 11.60503906 -0.83929688 12.29210937 -1 13 C-1.66 13 -2.32 13 -3 13 C-3.66 14.32 -4.32 15.64 -5 17 C-5.99 16.67 -6.98 16.34 -8 16 C-7.34 15.67 -6.68 15.34 -6 15 C-6 14.34 -6 13.68 -6 13 C-6.99 12.67 -7.98 12.34 -9 12 C-9.33 12.99 -9.66 13.98 -10 15 C-10.33 14.34 -10.66 13.68 -11 13 C-5.03416856 3.40546697 -5.03416856 3.40546697 0 0 Z " fill="#EDD7B2" transform="translate(146,190)"/>
<path d="M0 0 C3.81701322 0.04788368 3.81701322 0.04788368 6.125 1.5625 C7.125 3.25 7.125 3.25 7.125 6.25 C6.465 6.25 5.805 6.25 5.125 6.25 C4.465 4.93 3.805 3.61 3.125 2.25 C0.29348027 1.83190799 0.29348027 1.83190799 -2.875 2.25 C-5.27906384 4.62842577 -5.27906384 4.62842577 -6.875 7.25 C-5.9675 7.37375 -5.06 7.4975 -4.125 7.625 C-1.28529677 8.17109677 0.65090591 8.82263803 3.125 10.25 C-0.92931692 11.40837626 -3.09312119 11.08691257 -6.875 9.25 C-6.215 12.22 -5.555 15.19 -4.875 18.25 C-7.875 17.25 -7.875 17.25 -9.0625 15.625 C-10.21467011 12.25711814 -10.30956677 9.78861512 -9.875 6.25 C-7.4375 3.375 -7.4375 3.375 -4.875 1.25 C-3.875 0.25 -3.875 0.25 0 0 Z " fill="#CFBF9F" transform="translate(213.875,367.75)"/>
<path d="M0 0 C6.0546875 -0.1953125 6.0546875 -0.1953125 8 0 C8.66 0.66 9.32 1.32 10 2 C9.625 5.125 9.625 5.125 9 8 C4.545 8.495 4.545 8.495 0 9 C0 6.03 0 3.06 0 0 Z " fill="#253A37" transform="translate(143,369)"/>
<path d="M0 0 C3.99452176 1.36955032 6.92159754 3.0926199 10 6 C10.640625 8.1328125 10.640625 8.1328125 11 10 C0.84682713 9.80743982 0.84682713 9.80743982 -2.6875 6.4375 C-3.3371875 5.2309375 -3.3371875 5.2309375 -4 4 C-2.68 4 -1.36 4 0 4 C0 2.68 0 1.36 0 0 Z " fill="#EFD8B3" transform="translate(262,101)"/>
<path d="M0 0 C0.66 0.33 1.32 0.66 2 1 C1.505 1.495 1.01 1.99 0.5 2.5 C-1.60835565 6.01392608 -1.59078637 8.99578127 -1 13 C-0.06756129 15.57951684 -0.06756129 15.57951684 2 17 C5.0842309 17.41702122 5.0842309 17.41702122 8 17 C9.25156054 15.95137906 9.25156054 15.95137906 9.3125 13.625 C9.27329279 10.84916802 9.27329279 10.84916802 7 9.1875 C6.01 8.5996875 6.01 8.5996875 5 8 C7.31 8 9.62 8 12 8 C12.35820896 15.28358209 12.35820896 15.28358209 11 18 C7.71847847 19.64076077 4.52118005 19.75502886 1 19 C-2.61391202 16.07811368 -4.74312565 13.88374526 -5.375 9.25 C-4.85819514 4.77102456 -3.07264838 3.2262808 0 0 Z " fill="#D2C2A1" transform="translate(185,369)"/>
<path d="M0 0 C2.475 0.99 2.475 0.99 5 2 C4.236875 2.556875 3.47375 3.11375 2.6875 3.6875 C-1.46144578 7.25752312 -3.22884711 10.60192974 -4 16 C-5.65 16.33 -7.3 16.66 -9 17 C-8.88391305 12.15600804 -8.78997303 8.95628314 -5.625 5.125 C-4.75875 4.42375 -3.8925 3.7225 -3 3 C-2.401875 2.401875 -1.80375 1.80375 -1.1875 1.1875 C-0.795625 0.795625 -0.40375 0.40375 0 0 Z " fill="#F3DCB6" transform="translate(155,150)"/>
<path d="M0 0 C0.69738281 0.00902344 1.39476562 0.01804687 2.11328125 0.02734375 C3.82566958 0.05080112 5.53788004 0.08666896 7.25 0.125 C6.59 0.785 5.93 1.445 5.25 2.125 C4.26 2.125 3.27 2.125 2.25 2.125 C2.58 3.445 2.91 4.765 3.25 6.125 C-2.80525768 7.51266322 -6.07010626 6.61618146 -11.75 4.125 C-11.75 3.465 -11.75 2.805 -11.75 2.125 C-8.00764681 -0.32489101 -4.30774581 -0.10586143 0 0 Z " fill="#F1DAB4" transform="translate(292.75,109.875)"/>
<path d="M0 0 C2.87424607 2.87424607 4.04172583 6.07530358 5 10 C4.96247313 12.50022777 4.56302718 14.5431541 4 17 C3.34 16.34 2.68 15.68 2 15 C-0.58354218 14.83312552 -0.58354218 14.83312552 -3 15 C-3.3152595 9.01006953 -2.68219822 5.36439644 0 0 Z " fill="#EFD9B3" transform="translate(148,245)"/>
<path d="M0 0 C0.33 0 0.66 0 1 0 C1 6.82417582 1 6.82417582 -1.77734375 10.08984375 C-7.33013804 15 -7.33013804 15 -10 15 C-9.68554487 12.66404762 -9.3496418 10.33094534 -9 8 C-8.9175 7.236875 -8.835 6.47375 -8.75 5.6875 C-8 4 -8 4 -5.625 2.6875 C-3 2 -3 2 0 3 C0 2.01 0 1.02 0 0 Z " fill="#ECD6B1" transform="translate(187,122)"/>
<path d="M0 0 C5.28 0 10.56 0 16 0 C16 0.66 16 1.32 16 2 C13.03 1.505 13.03 1.505 10 1 C10 7.27 10 13.54 10 20 C9.01 20 8.02 20 7 20 C7 13.73 7 7.46 7 1 C4.69 1.33 2.38 1.66 0 2 C0 1.34 0 0.68 0 0 Z " fill="#CDBE9E" transform="translate(317,368)"/>
<path d="M0 0 C5.79001199 1.24071685 8.80580938 4.19738715 12 9 C12 9.66 12 10.32 12 11 C6.58609132 10.53328373 2.79482068 9.75702189 -2 7 C-2 6.34 -2 5.68 -2 5 C-1.34 4.67 -0.68 4.34 0 4 C0 2.68 0 1.36 0 0 Z " fill="#F0D9B3" transform="translate(160,276)"/>
<path d="M0 0 C1.75 1.8125 1.75 1.8125 3 4 C2.67 4.99 2.34 5.98 2 7 C-2.39529916 8.98834962 -6.22037853 9.19118486 -11 9 C-8.50649547 4.27546509 -5.71518199 0 0 0 Z " fill="#EED8B2" transform="translate(237,102)"/>
<path d="M0 0 C2.95126765 1.70957577 3.87964785 2.57592898 4.828125 5.91796875 C4.96734375 6.99691406 5.1065625 8.07585937 5.25 9.1875 C5.39953125 10.27417969 5.5490625 11.36085937 5.703125 12.48046875 C5.80109375 13.31191406 5.8990625 14.14335937 6 15 C2.22126931 13.24357507 -0.22736177 11.14731907 -3 8 C-3.8125 5.6875 -3.8125 5.6875 -4 4 C-3.01 3.67 -2.02 3.34 -1 3 C-0.67 2.01 -0.34 1.02 0 0 Z " fill="#F0D9B4" transform="translate(141,223)"/>
<path d="M0 0 C4.28383762 1.3282086 5.9783526 2.82522516 8.3125 6.625 C8.82425781 7.44226563 9.33601563 8.25953125 9.86328125 9.1015625 C10.23839844 9.72804687 10.61351562 10.35453125 11 11 C10.38125 11.103125 9.7625 11.20625 9.125 11.3125 C6.63473516 11.87525373 6.63473516 11.87525373 5 15 C1.67042052 12.40019136 1.38238288 9.88935445 0.8125 5.8125 C0.65394531 4.72582031 0.49539063 3.63914063 0.33203125 2.51953125 C0.22246094 1.68808594 0.11289062 0.85664063 0 0 Z " fill="#F1DAB4" transform="translate(353,191)"/>
<path d="M0 0 C-0.36504064 5.66442374 -1.0554321 10.00703705 -4 15 C-4.66 15 -5.32 15 -6 15 C-6.33 14.01 -6.66 13.02 -7 12 C-7.99 12 -8.98 12 -10 12 C-9.51980564 7.65574165 -8.35568204 5.93796082 -5 3.1875 C-4.278125 2.58292969 -3.55625 1.97835938 -2.8125 1.35546875 C-1 0 -1 0 0 0 Z " fill="#F3DCB6" transform="translate(322,292)"/>
<path d="M0 0 C3.0625 0.4375 3.0625 0.4375 4.9375 2.9375 C5.30875 3.7625 5.68 4.5875 6.0625 5.4375 C5.0725 5.9325 5.0725 5.9325 4.0625 6.4375 C3.7325 7.4275 3.4025 8.4175 3.0625 9.4375 C-0.2375 8.4475 -3.5375 7.4575 -6.9375 6.4375 C-4.01795977 0.59841954 -4.01795977 0.59841954 0 0 Z " fill="#273C38" transform="translate(213.9375,368.5625)"/>
<path d="M0 0 C-1.56204726 4.21752761 -4.45134252 6.37399346 -8 9 C-10.375 9.8125 -10.375 9.8125 -12 10 C-12 8.68 -12 7.36 -12 6 C-12.66 5.34 -13.32 4.68 -14 4 C-12.14737269 1.632754 -11.10277401 1.02457639 -8.125 0.3125 C-5.38423875 0.03842388 -2.75093571 -0.08090987 0 0 Z " fill="#F3DCB6" transform="translate(273,318)"/>
<path d="M0 0 C0.12375 0.78375 0.2475 1.5675 0.375 2.375 C0.79117993 5.14057822 0.79117993 5.14057822 3 7 C-3.51791392 7.3540919 -8.17521449 7.03901852 -14 4 C-9.49667324 0.99778216 -5.42232421 -0.31896025 0 0 Z " fill="#F2DBB5" transform="translate(295,312)"/>
<path d="M0 0 C5.8022175 -0.36263859 9.63999211 0.74315457 15 3 C12.94766315 5.2477975 11.99332739 6.0022242 9 7 C7.43881572 7.06740865 5.8749748 7.08514456 4.3125 7.0625 C3.10013672 7.04896484 3.10013672 7.04896484 1.86328125 7.03515625 C0.94095703 7.01775391 0.94095703 7.01775391 0 7 C0.185625 6.21625 0.37125 5.4325 0.5625 4.625 C1.25962266 2.02910225 1.25962266 2.02910225 0 0 Z " fill="#F7DFB8" transform="translate(203,312)"/>
<path d="M0 0 C7.5273523 4.93654267 7.5273523 4.93654267 9.5 9.375 C9.665 10.24125 9.83 11.1075 10 12 C8.68 12 7.36 12 6 12 C5.67 12.66 5.34 13.32 5 14 C4.34 14 3.68 14 3 14 C0.56574762 9.03006806 -0.34615998 5.65394631 0 0 Z " fill="#F5DDB7" transform="translate(178,292)"/>
<path d="M0 0 C0.66 0.33 1.32 0.66 2 1 C1.67 5.95 1.34 10.9 1 16 C-1.31 14.02 -3.62 12.04 -6 10 C-4.80655062 5.22620248 -3.20354235 3.61425291 0 0 Z " fill="#EBD6B1" transform="translate(128,206)"/>
<path d="M0 0 C2.03993514 4.92984325 3.40652968 8.57960425 3 14 C-4.68490153 8.9059081 -4.68490153 8.9059081 -6 5.125 C-6 4.42375 -6 3.7225 -6 3 C-2.25 0 -2.25 0 0 0 Z " fill="#F5DDB6" transform="translate(319,123)"/>
<path d="M0 0 C1.7717719 0.06016203 3.54258679 0.14899328 5.3125 0.25 C6.79169922 0.31960938 6.79169922 0.31960938 8.30078125 0.390625 C11 1 11 1 12.85546875 3.046875 C13.23316406 3.69140625 13.61085937 4.3359375 14 5 C13.01 5.33 12.02 5.66 11 6 C10.67 6.99 10.34 7.98 10 9 C5.74257863 8.52695318 3.74294902 6.1136178 1 3 C0.67 2.01 0.34 1.02 0 0 Z " fill="#F4DCB6" transform="translate(227,318)"/>
<path d="M0 0 C0.66 0.33 1.32 0.66 2 1 C0.515 3.475 0.515 3.475 -1 6 C2.3 6.33 5.6 6.66 9 7 C8.67 7.99 8.34 8.98 8 10 C4.62007831 9.46228519 1.31262111 8.85696068 -2 8 C-1.52219697 9.29217171 -1.04270894 10.58372046 -0.5625 11.875 C-0.29566406 12.59429687 -0.02882812 13.31359375 0.24609375 14.0546875 C0.97916854 16.03648845 0.97916854 16.03648845 2 18 C-0.66404576 16.98949988 -1.97707828 16.02766415 -3.8125 13.8125 C-5.39739585 10.05879929 -5.06435104 7.90262049 -4 4 C-1.9375 1.5625 -1.9375 1.5625 0 0 Z " fill="#CEBE9F" transform="translate(254,369)"/>
<path d="M0 0 C3.04718178 0.33857575 4.7747603 0.83107022 7.25 2.6875 C9.35261037 5.46594942 9.68795779 7.56753564 10 11 C8.70414084 10.57507874 7.4133956 10.13454118 6.125 9.6875 C5.40570313 9.44386719 4.68640625 9.20023438 3.9453125 8.94921875 C2 8 2 8 0 5 C-0.125 2.3125 -0.125 2.3125 0 0 Z " fill="#E4D0AC" transform="translate(150,114)"/>
<path d="M0 0 C-0.26272013 3.85322864 -0.57291438 5.56137153 -3.3125 8.375 C-6 10 -6 10 -10 10 C-9.73727987 6.14677136 -9.42708562 4.43862847 -6.6875 1.625 C-4 0 -4 0 0 0 Z " fill="#E6D2AE" transform="translate(350,114)"/>
<path d="M0 0 C6.45152159 0.48690729 6.45152159 0.48690729 8.9375 2.8125 C10 5 10 5 10 9 C6.6875 8.8125 6.6875 8.8125 3 8 C0.65114231 5.12075508 0 3.72527067 0 0 Z " fill="#E9D3AF" transform="translate(340,305)"/>
<path d="M0 0 C1.54586876 3.09173752 1.29359521 5.59429552 1 9 C-0.875 11.4375 -0.875 11.4375 -3 13 C-3.66 13 -4.32 13 -5 13 C-6.46917359 5.77656318 -6.46917359 5.77656318 -4.1875 2 C-2 0 -2 0 0 0 Z " fill="#EBD5B0" transform="translate(287,78)"/>
<path d="M0 0 C4.22797927 2.90673575 4.22797927 2.90673575 6 5 C6.375 8.8125 6.375 8.8125 6 12 C4.68 12.33 3.36 12.66 2 13 C0.17481425 10.66376225 -1.01010373 8.91101935 -0.9765625 5.88671875 C-0.71735287 3.91462383 -0.36455921 1.95536303 0 0 Z " fill="#EBD5B0" transform="translate(282,337)"/>
<path d="M0 0 C3.7109611 0.31991044 4.99743948 0.7900419 7.625 3.3125 C7.295 4.3025 6.965 5.2925 6.625 6.3125 C4 7.125 4 7.125 0.625 7.3125 C-1.7336498 5.88881048 -3.38202837 4.25801992 -5.375 2.3125 C-3.375 0.3125 -3.375 0.3125 0 0 Z " fill="#EDD6B1" transform="translate(378.375,245.6875)"/>
<path d="M0 0 C2.375 1.875 2.375 1.875 4 4 C4 4.66 4 5.32 4 6 C-3.31707317 7.34146341 -3.31707317 7.34146341 -6.5 5.75 C-8 4 -8 4 -8 1 C-5.15916359 -0.42041821 -3.14522722 -0.31452272 0 0 Z " fill="#EFD9B3" transform="translate(122,176)"/>
<path d="M0 0 C0.99 0 1.98 0 3 0 C3 6.6 3 13.2 3 20 C2.01 20 1.02 20 0 20 C0 13.4 0 6.8 0 0 Z " fill="#CBBC9C" transform="translate(161,368)"/>
<path d="M0 0 C-1.45812808 6.44006568 -1.45812808 6.44006568 -3.875 8.9375 C-6 10 -6 10 -10 10 C-9.51053485 4.49351702 -9.51053485 4.49351702 -7.125 2.1875 C-4.7355217 0.8522033 -2.76442847 0 0 0 Z " fill="#F2DBB5" transform="translate(160,304)"/>
<path d="M0 0 C-1.36983503 3.16115776 -1.9890638 3.9927092 -5 6 C-7.73990408 5.96856707 -10.28417854 5.44521663 -13 5 C-13 4.34 -13 3.68 -13 3 C-8.42154598 -0.90843635 -5.81633966 -1.39592152 0 0 Z " fill="#F1DAB4" transform="translate(386,177)"/>
<path d="M0 0 C0.70125 0.00515625 1.4025 0.0103125 2.125 0.015625 C2.82625 0.01046875 3.5275 0.0053125 4.25 0 C6.125 0.265625 6.125 0.265625 8.125 2.265625 C6.625 4.265625 6.625 4.265625 4.125 6.265625 C1.36628373 6.62362635 -1.07597524 6.45222665 -3.875 6.265625 C-3.875 0.54895833 -3.875 0.54895833 0 0 Z " fill="#F0D9B4" transform="translate(118.875,245.734375)"/>
<path d="M0 0 C3.875 1.75 3.875 1.75 5 4 C5.13415472 6.6723621 5.04318541 9.32250488 5 12 C2 12 2 12 0.3125 11 C-1.82131063 7.74847904 -1.24717396 4.83119638 -1 1 C-0.67 0.67 -0.34 0.34 0 0 Z " fill="#F1DAB4" transform="translate(213,78)"/>
<path d="M0 0 C0.66 0 1.32 0 2 0 C1.69201674 1.48011371 1.378482 2.95907325 1.0625 4.4375 C0.88847656 5.26121094 0.71445312 6.08492188 0.53515625 6.93359375 C0 9 0 9 -1 10 C-3.69082872 9.82364548 -6.32851446 9.38164079 -9 9 C-7.49450444 4.78461243 -4.70682435 3.28718949 -1 1 C-0.67 0.67 -0.34 0.34 0 0 Z " fill="#F8DFB8" transform="translate(315,315)"/>
<path d="M0 0 C2 2 2 2 2.3125 5.9375 C2.25612142 8.76155426 2.23113287 9.69182284 0.5 12 C0.005 12.33 -0.49 12.66 -1 13 C-1.99 12.67 -2.98 12.34 -4 12 C-4.33292585 7.75519536 -4.43885872 5.64457375 -2 2.0625 C-1.34 1.381875 -0.68 0.70125 0 0 Z " fill="#F7DFB8" transform="translate(216,337)"/>
<path d="M0 0 C3 1 3 1 4.07495117 2.64233398 C4.39439697 3.33657471 4.71384277 4.03081543 5.04296875 4.74609375 C5.39423828 5.50083984 5.74550781 6.25558594 6.10742188 7.03320312 C6.46384766 7.82662109 6.82027344 8.62003906 7.1875 9.4375 C7.55552734 10.22705078 7.92355469 11.01660156 8.30273438 11.83007812 C11 17.7000087 11 17.7000087 11 20 C10.01 20 9.02 20 8 20 C6.66065284 17.04435292 5.32955753 14.0850622 4 11.125 C3.6184375 10.28324219 3.236875 9.44148438 2.84375 8.57421875 C2.4828125 7.76855469 2.121875 6.96289062 1.75 6.1328125 C1.41484375 5.38918457 1.0796875 4.64555664 0.734375 3.87939453 C0 2 0 2 0 0 Z " fill="#E5D0AC" transform="translate(301,368)"/>
<path d="M0 0 C2.31 0 4.62 0 7 0 C7.35820896 7.28358209 7.35820896 7.28358209 6 10 C2.72032242 11.63983879 -0.37138689 11.17845638 -4 11 C-4 10.01 -4 9.02 -4 8 C-3.67 8.33 -3.34 8.66 -3 9 C0 9.16666667 0 9.16666667 3 9 C4.25156054 7.95137906 4.25156054 7.95137906 4.3125 5.625 C4.27329279 2.84916802 4.27329279 2.84916802 2 1.1875 C1.34 0.795625 0.68 0.40375 0 0 Z " fill="#AAA289" transform="translate(190,377)"/>
<path d="M0 0 C0.66 0.33 1.32 0.66 2 1 C1.505 1.495 1.01 1.99 0.5 2.5 C-1.56554086 5.94256811 -1.59844292 9.12546569 -1 13 C0.3509288 15.9254644 0.3509288 15.9254644 2 18 C-1.16115776 16.63016497 -1.9927092 16.0109362 -4 13 C-4.67605634 6.01408451 -4.67605634 6.01408451 -2 2 C-1.34 1.34 -0.68 0.68 0 0 Z " fill="#E2CEAB" transform="translate(344,369)"/>
<path d="M0 0 C0.33 0.66 0.66 1.32 1 2 C0.67 2.66 0.34 3.32 0 4 C-0.04022391 6.3329866 -0.04320247 8.66706666 0 11 C1.65 11.33 3.3 11.66 5 12 C5 12.66 5 13.32 5 14 C2.125 14.125 2.125 14.125 -1 14 C-3 12 -3 12 -3.3125 8.6875 C-2.98867205 4.86633018 -2.22414284 3.05819641 0 0 Z " fill="#CEBF9F" transform="translate(120,374)"/>
<path d="M0 0 C1.23037303 2.46074606 1 4.2797563 1 7 C2.05224667 8.27556818 2.05224667 8.27556818 4.4375 8.125 C6.98978622 8.17306676 6.98978622 8.17306676 9 7 C8.67 7.99 8.34 8.98 8 10 C1.64 11.32 1.64 11.32 -1 10 C-2.57279672 6.85440657 -1.7415208 4.33684358 -1 1 C-0.67 0.67 -0.34 0.34 0 0 Z " fill="#DBC8A6" transform="translate(296,377)"/>
<path d="M0 0 C2.475 0.99 2.475 0.99 5 2 C4.67 2.99 4.34 3.98 4 5 C2.948125 4.5978125 2.948125 4.5978125 1.875 4.1875 C-1.46011275 3.96999265 -1.86550387 4.36830612 -4.3125 6.4375 C-5.199375 7.283125 -6.08625 8.12875 -7 9 C-5.44499019 5.18315774 -2.96404505 2.80804268 0 0 Z " fill="#95927C" transform="translate(156,147)"/>
<path d="M0 0 C2.45708327 0.37682159 3.66842953 0.5916771 5.265625 2.55859375 C8 7.77777778 8 7.77777778 8 10 C4.50126729 8.60344703 3.29108169 7.28739516 1.75 3.875 C1.41484375 3.15054687 1.0796875 2.42609375 0.734375 1.6796875 C0.49203125 1.12539063 0.2496875 0.57109375 0 0 Z " fill="#E3CFAB" transform="translate(372,378)"/>
<path d="M0 0 C1.828125 0.21484375 1.828125 0.21484375 4 1 C5.484375 3.06640625 5.484375 3.06640625 6.75 5.5625 C7.17796875 6.38878906 7.6059375 7.21507812 8.046875 8.06640625 C8.36140625 8.70449219 8.6759375 9.34257812 9 10 C7.171875 9.78515625 7.171875 9.78515625 5 9 C3.515625 6.93359375 3.515625 6.93359375 2.25 4.4375 C1.82203125 3.61121094 1.3940625 2.78492188 0.953125 1.93359375 C0.63859375 1.29550781 0.3240625 0.65742188 0 0 Z " fill="#E8D3AE" transform="translate(279,378)"/>
<path d="M0 0 C2.475 0.495 2.475 0.495 5 1 C5.625 4.375 5.625 4.375 6 8 C5.34 8.66 4.68 9.32 4 10 C3.01 9.67 2.02 9.34 1 9 C1.66 9 2.32 9 3 9 C3.40749675 4.74268432 3.40749675 4.74268432 1.5 1.125 C1.005 0.75375 0.51 0.3825 0 0 Z " fill="#DCCAA7" transform="translate(149,368)"/>
<path d="M0 0 C0.33 0 0.66 0 1 0 C1 3.63 1 7.26 1 11 C0.34 10.67 -0.32 10.34 -1 10 C-1.75 6.625 -1.75 6.625 -2 3 C-1.34 2.01 -0.68 1.02 0 0 Z " fill="#A9A188" transform="translate(144,209)"/>
<path d="M0 0 C0.33 0.99 0.66 1.98 1 3 C-1.5958956 5.87402727 -3.21369298 7.24432948 -7 8 C-6.21366078 6.85050412 -5.42073742 5.70551011 -4.625 4.5625 C-4.18414062 3.92441406 -3.74328125 3.28632813 -3.2890625 2.62890625 C-2 1 -2 1 0 0 Z " fill="#E9D4AF" transform="translate(193,186)"/>
<path d="M0 0 C4.24480464 -0.33292585 6.35542625 -0.43885872 9.9375 2 C10.618125 2.66 11.29875 3.32 12 4 C11.34 5.32 10.68 6.64 10 8 C9.34 6.35 8.68 4.7 8 3 C6.865625 2.87625 5.73125 2.7525 4.5625 2.625 C3.386875 2.41875 2.21125 2.2125 1 2 C0.67 1.34 0.34 0.68 0 0 Z " fill="#B2A88D" transform="translate(346,368)"/>
<path d="M0 0 C1.65 0 3.3 0 5 0 C5 1.32 5 2.64 5 4 C3.824375 3.9690625 3.824375 3.9690625 2.625 3.9375 C0.01885039 3.81315937 0.01885039 3.81315937 -2 5 C-1.34 3.35 -0.68 1.7 0 0 Z " fill="#787B6A" transform="translate(182,121)"/>
<path d="M0 0 C6.32258065 -0.36476427 6.32258065 -0.36476427 9.4375 1.3125 C11 3 11 3 11 6 C10.01 6 9.02 6 8 6 C8 4.68 8 3.36 8 2 C5.36 1.67 2.72 1.34 0 1 C0 0.67 0 0.34 0 0 Z " fill="#B4AA8F" transform="translate(256,368)"/>
<path d="M0 0 C2.97 0 5.94 0 9 0 C9 0.33 9 0.66 9 1 C7.02 1 5.04 1 3 1 C3 2.32 3 3.64 3 5 C2.01 5 1.02 5 0 5 C0 3.35 0 1.7 0 0 Z " fill="#636B5D" transform="translate(295,312)"/>
<path d="M0 0 C3 4 3 4 2.8125 6.6875 C2 9 2 9 0 10 C0 6.7 0 3.4 0 0 Z " fill="#A49D85" transform="translate(355,209)"/>
<path d="M0 0 C0.99 0.33 1.98 0.66 3 1 C3 2.98 3 4.96 3 7 C1.02 7.99 1.02 7.99 -1 9 C-0.7525 7.329375 -0.7525 7.329375 -0.5 5.625 C0.0455458 2.27967967 0.0455458 2.27967967 0 0 Z " fill="#E6D1AD" transform="translate(377,369)"/>
<path d="M0 0 C6.625 -0.25 6.625 -0.25 10 2 C10 3.32 10 4.64 10 6 C9.34 6 8.68 6 8 6 C7.690625 5.0409375 7.690625 5.0409375 7.375 4.0625 C6.10461791 1.65074923 6.10461791 1.65074923 2.875 1.25 C1.92625 1.1675 0.9775 1.085 0 1 C0 0.67 0 0.34 0 0 Z " fill="#BEB295" transform="translate(187,368)"/>
<path d="M0 0 C1.98 0 3.96 0 6 0 C3.64722731 2.72426311 1.37503669 3.8141763 -2 5 C-1.34 3.35 -0.68 1.7 0 0 Z " fill="#CDBE9E" transform="translate(195,120)"/>
<path d="M0 0 C2.8125 -0.3125 2.8125 -0.3125 6 0 C7.875 2.5 7.875 2.5 9 5 C5.54074837 3.7508258 2.85306797 2.32472205 0 0 Z " fill="#C6B89A" transform="translate(298,120)"/>
<path d="M0 0 C3.25 0.8125 3.25 0.8125 6 2 C6 2.33 6 2.66 6 3 C2.7 3 -0.6 3 -4 3 C-2.68 2.01 -1.36 1.02 0 0 Z " fill="#E1CEAA" transform="translate(249,106)"/>
<path d="M0 0 C2.97 0 5.94 0 9 0 C8.67 0.99 8.34 1.98 8 3 C2.25 2.25 2.25 2.25 0 0 Z " fill="#E3CFAB" transform="translate(254,376)"/>
</svg>
